<svg xmlns="http://www.w3.org/2000/svg" viewBox="0 0 809.94 100.88"><title>svgAsset 2techconsulting1</title><g id="Layer_2" data-name="Layer 2"><g id="Layer_1-2" data-name="Layer 1"><path d="M43.21,3.62V5.43H22.61V74.35h-2V5.43H0V3.62Z"/><path d="M92.74,68.63A18.94,18.94,0,0,0,100.28,56h2a21.56,21.56,0,0,1-8,13.81q-6.58,5.28-16.93,5.28A27.11,27.11,0,0,1,63.9,71.74a23.24,23.24,0,0,1-9.29-9.64,31.18,31.18,0,0,1-3.37-14.88,31.17,31.17,0,0,1,3.37-14.87,23.24,23.24,0,0,1,9.29-9.64,27.11,27.11,0,0,1,13.47-3.32,25.89,25.89,0,0,1,13.56,3.37,22.45,22.45,0,0,1,8.49,8.69,23.4,23.4,0,0,1,2.86,11.25c0,2.41,0,4.22-.1,5.43H53.25q.11,8.34,3.47,14a21.58,21.58,0,0,0,8.79,8.39,25.78,25.78,0,0,0,11.86,2.76Q86.51,73.25,92.74,68.63ZM65.51,24a21.58,21.58,0,0,0-8.79,8.39q-3.37,5.64-3.47,14h47.23q.49-8.34-2.67-14A20.3,20.3,0,0,0,89.17,24a26.73,26.73,0,0,0-23.66,0Z"/><path d="M117.71,32.35A23.24,23.24,0,0,1,127,22.71a27.11,27.11,0,0,1,13.47-3.32q10.34,0,16.93,5.28a21.56,21.56,0,0,1,8,13.81h-2a18.9,18.9,0,0,0-7.53-12.66q-6.24-4.62-15.37-4.62a25.61,25.61,0,0,0-12,2.86,21.51,21.51,0,0,0-8.79,8.7q-3.32,5.82-3.32,14.46t3.32,14.47a21.42,21.42,0,0,0,8.79,8.69,25.5,25.5,0,0,0,12,2.87q9.14,0,15.37-4.62A18.9,18.9,0,0,0,163.37,56h2a21.56,21.56,0,0,1-8,13.81q-6.59,5.28-16.93,5.28A27.11,27.11,0,0,1,127,71.74a23.24,23.24,0,0,1-9.29-9.64,31.18,31.18,0,0,1-3.37-14.88A31.17,31.17,0,0,1,117.71,32.35Z"/><path d="M218.94,24.82q6.12,5.92,6.13,17.88V74.35h-1.91V42.5q0-10.65-5.33-16.23T203.26,20.7q-9.64,0-15.47,6.28T182,45.52V74.35h-2V0h2V34.36a19.12,19.12,0,0,1,7.64-11.5,23.35,23.35,0,0,1,13.66-4Q212.82,18.89,218.94,24.82Z"/><path d="M266.21,28.28a2.92,2.92,0,0,1,0-3.91,2.66,2.66,0,0,1,3.72,0,2.92,2.92,0,0,1,0,3.91,2.66,2.66,0,0,1-3.72,0Zm0,45.52a2.94,2.94,0,0,1,0-3.92,2.68,2.68,0,0,1,3.72,0,2.94,2.94,0,0,1,0,3.92,2.68,2.68,0,0,1-3.72,0Z"/><path d="M313.28,20.35A31.55,31.55,0,0,1,342,2.91q12.36,0,20.45,5.73a32.55,32.55,0,0,1,11.8,15.88h-2a29.27,29.27,0,0,0-11-14.37Q353.57,4.72,342,4.72a30.14,30.14,0,0,0-15.67,4.17,29.37,29.37,0,0,0-11.11,12,38.88,38.88,0,0,0-4.07,18.24,38.33,38.33,0,0,0,4.07,18.08A29.27,29.27,0,0,0,326.4,69.08,30.22,30.22,0,0,0,342,73.25q11.55,0,19.29-5.38a28.93,28.93,0,0,0,11-14.32h2a32.23,32.23,0,0,1-11.8,15.83q-8.09,5.69-20.45,5.68a32.14,32.14,0,0,1-17-4.57,31.51,31.51,0,0,1-11.76-12.77,40.1,40.1,0,0,1-4.22-18.63A40.35,40.35,0,0,1,313.28,20.35Z"/><path d="M399.29,71.69A24.09,24.09,0,0,1,389.8,62a30.17,30.17,0,0,1-3.47-14.82A30.23,30.23,0,0,1,389.8,32.4a24.13,24.13,0,0,1,9.49-9.64,29,29,0,0,1,27.13,0,23.84,23.84,0,0,1,9.45,9.64,30.66,30.66,0,0,1,3.41,14.82A30.61,30.61,0,0,1,435.87,62a23.81,23.81,0,0,1-9.45,9.65,29,29,0,0,1-27.13,0Zm25.63-1.31a22,22,0,0,0,8.94-8.69q3.4-5.82,3.41-14.47t-3.41-14.46a22.09,22.09,0,0,0-8.94-8.7,26,26,0,0,0-12.06-2.86,26.23,26.23,0,0,0-12.11,2.86,21.85,21.85,0,0,0-9,8.75q-3.42,5.86-3.42,14.41t3.42,14.42a21.76,21.76,0,0,0,9,8.74,26.11,26.11,0,0,0,12.11,2.87A25.85,25.85,0,0,0,424.92,70.38Z"/><path d="M492.84,24.82Q499,30.74,499,42.7V74.35h-1.91V42.5q0-10.65-5.33-16.23T477.16,20.7q-9.65,0-15.47,6.28t-5.83,18.54V74.35h-2V20.1h2V34.36a19.12,19.12,0,0,1,7.64-11.5,23.35,23.35,0,0,1,13.66-4Q486.71,18.89,492.84,24.82Z"/><path d="M518.61,71.44q-5.48-3.61-6.38-10.95h2a12.43,12.43,0,0,0,5.38,9.39q4.77,3.38,13.51,3.37a17,17,0,0,0,7.79-1.71A12.83,12.83,0,0,0,546.09,67a11.33,11.33,0,0,0,1.81-6.18,8.42,8.42,0,0,0-2.06-5.88,13.48,13.48,0,0,0-5.13-3.47,80.18,80.18,0,0,0-8.38-2.61,73.41,73.41,0,0,1-9.6-3,15.76,15.76,0,0,1-6.23-4.62A12.57,12.57,0,0,1,513.94,33a11.37,11.37,0,0,1,2.21-6.74,15.52,15.52,0,0,1,6.08-5,19.79,19.79,0,0,1,8.69-1.86q8.24,0,13.26,4.12T549.61,35h-2a13.77,13.77,0,0,0-4.57-9.9q-4.28-3.87-12.11-3.87a17.78,17.78,0,0,0-7.64,1.61,13.51,13.51,0,0,0-5.37,4.32A9.74,9.74,0,0,0,516,33a10.63,10.63,0,0,0,2.31,7.13,13.93,13.93,0,0,0,5.68,4,89.4,89.4,0,0,0,9,2.81c3.82,1.08,6.81,2,9,2.92a14.26,14.26,0,0,1,5.58,4,10.26,10.26,0,0,1,2.31,7,12.7,12.7,0,0,1-2.21,7.28,15.15,15.15,0,0,1-6,5.13A19.25,19.25,0,0,1,533,75.06Q524.09,75.06,518.61,71.44Z"/><path d="M608.69,20.1V74.35h-2V59.58a19,19,0,0,1-7.59,11.76,23.39,23.39,0,0,1-13.71,4q-9.55,0-15.68-5.93t-6.13-17.89V20.1h1.91V51.75q0,10.65,5.33,16.22t14.57,5.58q9.64,0,15.47-6.28t5.83-18.54V20.1Z"/><path d="M627.78,0V74.35h-2V0Z"/><path d="M649.18,22.1v38a20.21,20.21,0,0,0,1.1,7.53,6.65,6.65,0,0,0,3.52,3.67,17.32,17.32,0,0,0,6.73,1h5.73v2h-5.93q-7,0-10.1-3.21t-3.06-11v-38h-8.84v-2h8.84V6.23h2V20.1h17.08v2Z"/><path d="M678,5.48a2.68,2.68,0,0,1-.75-2,2.65,2.65,0,0,1,.75-2A2.53,2.53,0,0,1,679.82.8a2.5,2.5,0,0,1,1.86.76,2.65,2.65,0,0,1,.76,2,2.68,2.68,0,0,1-.76,2,2.53,2.53,0,0,1-1.86.75A2.56,2.56,0,0,1,678,5.48Zm2.87,14.62V74.35h-2V20.1Z"/><path d="M736.89,24.82Q743,30.74,743,42.7V74.35h-1.91V42.5q0-10.65-5.32-16.23T721.22,20.7q-9.65,0-15.47,6.28t-5.83,18.54V74.35h-2V20.1h2V34.36a19.15,19.15,0,0,1,7.63-11.5,23.39,23.39,0,0,1,13.67-4Q730.76,18.89,736.89,24.82Z"/><path d="M799.34,24.21A23.26,23.26,0,0,1,808,36.47V20.1h1.91V76.36a25.2,25.2,0,0,1-3.31,13.12,22.41,22.41,0,0,1-8.8,8.49,25,25,0,0,1-11.9,2.91q-9.85,0-16.33-4.77a24.07,24.07,0,0,1-8.89-12.91h2a22.16,22.16,0,0,0,8.19,11.6q5.87,4.28,15,4.27a22.69,22.69,0,0,0,11.25-2.81,20.61,20.61,0,0,0,7.94-7.94,23.81,23.81,0,0,0,2.91-12V57.88a23.17,23.17,0,0,1-8.69,12.35,25.72,25.72,0,0,1-15.82,4.83,27.71,27.71,0,0,1-13.77-3.37A23.13,23.13,0,0,1,760.41,62a31.29,31.29,0,0,1-3.32-14.82,31.34,31.34,0,0,1,3.32-14.82,23.16,23.16,0,0,1,9.34-9.64,27.71,27.71,0,0,1,13.77-3.37A25.78,25.78,0,0,1,799.34,24.21Zm5.53,9.4a23,23,0,0,0-8.74-9.14,24.49,24.49,0,0,0-12.61-3.27,25.67,25.67,0,0,0-12.92,3.12,21.15,21.15,0,0,0-8.49,9,30.13,30.13,0,0,0-3,13.91,30.15,30.15,0,0,0,3,13.92,21.15,21.15,0,0,0,8.49,9,25.67,25.67,0,0,0,12.92,3.12A24.49,24.49,0,0,0,796.13,70a23,23,0,0,0,8.74-9.14A28.3,28.3,0,0,0,808,47.22,28.28,28.28,0,0,0,804.87,33.61Z"/></g></g></svg>